<svg width="1036" height="570" viewBox="0 0 1036 570" fill="none" xmlns="http://www.w3.org/2000/svg">
<path d="M193 295.8C193 401.8 107.1 487.7 1.1001 487.7V103.9C107.1 103.9 193 189.9 193 295.8Z" fill="white"/>
<path d="M843 295.8C843 401.8 928.9 487.7 1034.9 487.7V103.9C928.9 103.9 843 189.9 843 295.8Z" fill="white"/>
<path d="M187.2 80.9C179.6 80.9 173.5 74.8 173.5 67.2C173.5 59.6 179.6 53.5 187.2 53.5C194.8 53.5 200.9 59.6 200.9 67.2C200.9 74.7 194.8 80.9 187.2 80.9ZM187.2 55.8C180.9 55.8 175.8 60.9 175.8 67.2C175.8 73.5 180.9 78.6 187.2 78.6C193.5 78.6 198.6 73.5 198.6 67.2C198.7 60.9 193.5 55.8 187.2 55.8Z" fill="white"/>
<path d="M797 436.4H774.5V413.9H797V436.4ZM776.2 434.7H795.3V415.6H776.2V434.7Z" fill="white"/>
<path d="M259.7 416L244.3 399.5L260.8 384.1L276.2 400.6L259.7 416ZM246.8 399.6L259.8 413.6L273.8 400.6L260.8 386.6L246.8 399.6Z" fill="white"/>
<path d="M0 0V570H1036V0H0ZM1033.7 567.7H2.3V2.3H1033.7V567.7Z" fill="white"/>
<path d="M774.9 569.4C750.2 565.5 726.5 562.2 703.7 559.5L712.5 541.9C709.5 540.9 696.2 551 696.2 551L707.4 500.2C692.2 502.2 685.1 554 685.1 554L667.8 536.7L676.3 556.2C606.5 548.9 546.3 546.6 495.7 547.1L503.2 532.1C500.2 531.1 486.9 541.2 486.9 541.2L498.1 490.4C482.9 492.4 475.8 544.2 475.8 544.2L458.5 526.9L467.5 547.6C432.8 548.6 398.3 551.4 363.9 555.9C371.4 532.5 397.6 510.1 397.6 510.1C377.5 516.4 367 526.6 361.6 536C360.5 488 367.9 440.2 383.4 394.8C383.4 394.8 342.8 486.2 348.9 547.2L349.7 558C314.4 563.5 296.6 569 296.6 569L774.9 569.4Z" fill="white"/>
<path opacity="0.3" d="M524.4 446.7C612.103 446.7 683.2 375.603 683.2 287.9C683.2 200.197 612.103 129.1 524.4 129.1C436.697 129.1 365.6 200.197 365.6 287.9C365.6 375.603 436.697 446.7 524.4 446.7Z" fill="#2176FF"/>
<path d="M459.2 85.9L353.5 214.1L510 398.8L614.3 276.2L459.2 85.9Z" fill="#2176FF"/>
<path opacity="0.1" d="M459.2 85.9L353.5 214.1L510 398.8L614.3 276.2L459.2 85.9Z" fill="#F2F2F2"/>
<path d="M357.7 215.5C360 211.3 362.9 207.4 366.3 204L463.4 105.6C463.4 105.6 497.2 100 504.3 116.9L380.3 218.4L357.7 215.5Z" fill="black"/>
<path d="M352.8 213.4L496.6 433.3C496.6 433.3 510.7 443.2 524.8 437.5L672.1 338.1L515.6 101.4L374.6 211.3L352.8 213.4Z" fill="#2176FF"/>
<path d="M497.966 135.722L407.741 200.549L409.083 202.417L499.308 137.59L497.966 135.722Z" fill="white"/>
<path d="M406.64 224.778L404.722 226.047L523.117 405.045L525.035 403.776L406.64 224.778Z" fill="white"/>
<path d="M633.344 338.676L537.49 409.195L538.853 411.048L634.707 340.528L633.344 338.676Z" fill="white"/>
<path d="M515.169 138.701L513.281 140.015L635.939 316.241L637.827 314.927L515.169 138.701Z" fill="white"/>
<path d="M477.311 104.166L365.775 206.542L366.722 207.574L478.258 105.197L477.311 104.166Z" fill="white"/>
<path d="M486.596 105.133L370.018 208.043L370.945 209.093L487.523 106.183L486.596 105.133Z" fill="white"/>
<path d="M493.772 107.135L372.796 207.982L373.693 209.057L494.669 108.21L493.772 107.135Z" fill="white"/>
<path d="M998.3 295.8C991.8 293.4 983.8 289.3 978.8 284.9L982.3 294.6H919.5V296.9H982.3L978.8 306.6C983.8 302.4 991.8 298.2 998.3 295.8Z" fill="#313131"/>
<path d="M117.6 294.7H54.7998L58.2998 285C53.2998 289.4 45.2998 293.5 38.7998 295.9C45.2998 298.3 53.2998 302.4 58.2998 306.8L54.7998 297.1H117.6V294.7Z" fill="#313131"/>
</svg>
