<svg width="300" height="454" viewBox="0 0 300 454" fill="none" xmlns="http://www.w3.org/2000/svg">
<rect width="300" height="454" fill="#D8D8D8"/>
<g clip-path="url(#clip0_95_2)">
<path d="M180 252V254.5C180 258.642 176.642 262 172.5 262H112.5C108.358 262 105 258.642 105 254.5V214.5C105 210.358 108.358 207 112.5 207H115V239.5C115 246.393 120.608 252 127.5 252H180ZM195 239.5V199.5C195 195.358 191.642 192 187.5 192H127.5C123.358 192 120 195.358 120 199.5V239.5C120 243.642 123.358 247 127.5 247H187.5C191.642 247 195 243.642 195 239.5ZM145 207C145 211.142 141.642 214.5 137.5 214.5C133.358 214.5 130 211.142 130 207C130 202.858 133.358 199.5 137.5 199.5C141.642 199.5 145 202.858 145 207ZM130 229.5L138.674 220.826C139.406 220.094 140.594 220.094 141.326 220.826L147.5 227L168.674 205.826C169.406 205.094 170.594 205.094 171.326 205.826L185 219.5V237H130V229.5Z" fill="white"/>
</g>
<defs>
<clipPath id="clip0_95_2">
<rect width="90" height="90" fill="white" transform="translate(105 182)"/>
</clipPath>
</defs>
</svg>
